<?xml version="1.0" standalone="no"?>
<!DOCTYPE svg PUBLIC "-//W3C//DTD SVG 20010904//EN"
 "http://www.w3.org/TR/2001/REC-SVG-20010904/DTD/svg10.dtd">
<svg version="1.0" xmlns="http://www.w3.org/2000/svg"
 width="1920.000000pt" height="1920.000000pt" viewBox="0 0 1920.000000 1920.000000"
 preserveAspectRatio="xMidYMid meet">
<metadata>
Created by potrace 1.14, written by Peter Selinger 2001-2017
</metadata>
<g transform="translate(0.000000,1920.000000) scale(0.100000,-0.100000)"
fill="#000000" stroke="none">
<path d="M12028 14064 c-181 -42 -332 -144 -518 -354 -30 -35 -136 -186 -155
-224 -25 -48 -31 -46 -320 124 -16 9 -105 61 -198 114 l-167 96 -93 -54 c-50
-29 -211 -123 -357 -208 -146 -85 -330 -192 -410 -238 -80 -45 -200 -116 -267
-156 -67 -41 -124 -74 -127 -74 -3 0 -49 -26 -103 -59 -54 -32 -118 -69 -143
-83 -25 -14 -96 -55 -159 -92 -62 -37 -139 -81 -170 -98 -31 -17 -70 -41 -88
-54 -17 -13 -34 -24 -37 -24 -5 0 -153 -84 -351 -200 -49 -29 -162 -94 -250
-145 -88 -51 -216 -126 -285 -167 -69 -41 -132 -77 -140 -81 -8 -4 -31 -17
-50 -28 -19 -12 -55 -33 -80 -47 -25 -14 -57 -33 -72 -43 -14 -11 -28 -19 -31
-19 -3 0 -72 -39 -154 -87 -656 -382 -881 -513 -983 -571 -25 -14 -89 -51
-142 -83 -53 -32 -114 -67 -135 -79 -21 -11 -51 -29 -68 -39 -32 -19 -396
-230 -455 -263 -52 -29 -99 -57 -155 -92 -56 -35 -89 -53 -157 -90 -25 -14
-113 -65 -195 -114 -81 -49 -173 -102 -203 -119 -30 -16 -93 -53 -140 -80 -93
-55 -379 -221 -450 -261 -25 -14 -72 -42 -105 -62 -33 -20 -141 -83 -240 -140
-99 -56 -223 -128 -275 -159 -52 -32 -102 -60 -110 -64 -8 -3 -78 -43 -155
-89 l-140 -84 -1 -74 c-1 -41 -2 -105 -3 -142 l-1 -67 -72 -43 c-40 -23 -117
-68 -170 -100 -54 -32 -99 -58 -102 -58 -2 0 -66 -36 -140 -81 l-136 -80 0
-118 c0 -126 3 -133 65 -167 51 -28 119 -66 224 -128 62 -36 115 -66 117 -66
1 0 55 -31 120 -70 64 -38 118 -70 119 -70 3 0 125 -71 155 -90 8 -6 36 -21
62 -35 25 -13 106 -60 180 -103 73 -43 153 -90 178 -104 67 -38 291 -167 405
-233 55 -32 141 -81 190 -110 50 -29 135 -78 190 -110 55 -32 121 -71 148 -86
26 -16 49 -29 51 -29 2 0 50 -27 105 -60 56 -33 106 -60 111 -60 6 0 10 -4 10
-10 0 -5 5 -10 11 -10 6 0 49 -23 97 -51 116 -69 149 -88 202 -117 25 -13 50
-28 57 -34 7 -5 27 -18 45 -27 18 -10 83 -46 143 -81 61 -35 119 -68 130 -74
11 -6 31 -18 45 -27 14 -9 90 -53 170 -99 80 -46 165 -95 190 -110 54 -32 112
-65 415 -239 127 -73 237 -136 245 -141 8 -5 49 -28 90 -51 41 -23 86 -50 100
-59 14 -10 86 -52 160 -94 74 -43 142 -81 150 -86 8 -5 87 -50 175 -101 88
-50 248 -142 355 -204 107 -61 240 -138 295 -170 55 -32 166 -96 246 -142
l147 -84 148 87 c82 48 163 95 179 105 17 11 37 22 45 26 8 4 62 34 120 68 58
34 170 99 250 145 80 46 192 111 250 145 58 34 148 86 200 117 52 30 149 86
215 125 66 39 147 85 180 104 33 18 71 40 85 49 14 10 52 32 85 50 88 49 98
54 109 63 27 19 87 57 91 57 5 0 230 129 575 330 102 60 331 193 510 298 179
104 384 223 455 264 72 42 224 130 338 197 115 66 210 121 213 121 2 0 28 16
58 35 30 19 58 35 61 35 3 0 18 8 33 19 15 10 101 61 192 114 237 136 460 266
495 288 17 10 55 32 85 49 60 32 60 33 325 188 243 142 477 277 495 285 8 4
55 32 104 62 49 30 91 55 93 55 2 0 36 20 76 44 39 24 104 61 142 83 39 22
131 75 205 118 74 42 140 80 145 85 6 4 87 51 180 105 243 141 240 139 680
395 220 128 468 272 550 320 83 48 160 93 173 101 22 13 22 18 20 138 -3 111
-5 125 -23 135 -11 6 -43 26 -72 44 -30 17 -56 32 -58 32 -3 0 -24 11 -46 26
-44 27 -92 55 -154 89 -74 41 -120 67 -130 75 -5 4 -32 20 -60 35 -27 16 -68
39 -90 51 -22 13 -58 33 -80 45 -22 12 -53 31 -70 44 -30 22 -30 23 -29 119
l1 97 -32 25 c-18 13 -35 24 -38 24 -3 0 -58 32 -123 70 -64 39 -118 70 -120
70 -1 0 -69 39 -151 86 -196 114 -204 119 -232 134 l-24 12 29 27 c33 29 109
177 147 286 58 163 82 355 63 495 -32 226 -188 371 -392 365 -87 -2 -138 -17
-239 -66 -99 -49 -178 -107 -277 -206 -60 -59 -79 -73 -83 -61 -4 9 -2 25 3
35 12 21 42 132 49 178 2 17 8 44 12 61 9 32 7 255 -2 289 -39 146 -119 254
-223 302 -60 27 -160 37 -239 22 -78 -14 -219 -77 -276 -123 -14 -12 -38 -30
-53 -41 -16 -11 -62 -53 -104 -92 -98 -96 -105 -92 -68 42 10 33 19 74 21 90
2 17 7 50 11 75 12 74 7 205 -11 272 -25 99 -60 164 -117 222 -199 198 -557
95 -849 -245 -77 -91 -95 -109 -101 -109 -5 0 -4 8 1 18 9 16 70 198 75 225 2
7 6 23 9 37 15 58 19 91 23 200 5 134 -6 199 -50 295 -78 169 -245 250 -428
209z m213 -86 c85 -37 149 -124 179 -243 30 -124 7 -336 -58 -515 -3 -8 -6
-19 -7 -25 -5 -19 -68 -150 -90 -185 -25 -39 -26 -46 -14 -77 8 -21 7 -21 -24
-8 -27 11 -66 33 -145 80 -17 10 -182 106 -233 135 -444 254 -439 251 -439
277 0 65 203 318 350 435 64 51 169 106 242 127 75 22 186 21 239 -1z m963
-537 c23 -9 59 -29 79 -45 34 -27 93 -123 103 -166 2 -11 7 -30 10 -42 3 -13
7 -61 9 -108 7 -165 -42 -361 -138 -553 -47 -93 -52 -109 -41 -126 10 -14 11
-22 1 -34 -11 -14 -24 -9 -117 45 -98 56 -173 99 -578 333 -84 49 -155 92
-158 97 -11 18 6 55 68 148 78 117 93 136 193 234 115 113 258 202 359 222 10
2 21 5 23 8 11 11 148 2 187 -13z m-904 -531 c0 -5 -7 -10 -16 -10 -8 0 -12 5
-9 10 3 6 10 10 16 10 5 0 9 -4 9 -10z m1849 -10 c126 -57 189 -186 189 -387
0 -97 -4 -142 -23 -223 -3 -14 -8 -35 -11 -47 -9 -44 -75 -207 -115 -283 -36
-70 -39 -80 -27 -104 18 -41 -6 -52 -52 -24 -19 12 -59 35 -89 52 -29 17 -69
40 -87 51 -113 66 -543 314 -580 334 -24 14 -46 31 -49 40 -3 8 17 52 46 100
152 250 330 410 544 489 74 27 195 28 254 2z m912 -557 c137 -44 212 -201 203
-421 -4 -112 -6 -124 -28 -212 -24 -92 -62 -191 -112 -293 -24 -48 -44 -94
-44 -102 0 -32 -38 -25 -115 24 -29 18 -115 68 -202 117 -23 13 -93 54 -155
90 -62 37 -133 78 -158 92 -141 78 -202 116 -206 127 -8 20 18 70 94 182 51
74 159 189 240 254 73 59 215 135 269 145 15 3 30 7 32 10 11 11 134 2 182
-13z m39 -1057 c0 -3 -4 -8 -10 -11 -5 -3 -10 -1 -10 4 0 6 5 11 10 11 6 0 10
-2 10 -4z"/>
</g>
</svg>
