<?xml version="1.0" standalone="no"?>
<!DOCTYPE svg PUBLIC "-//W3C//DTD SVG 20010904//EN"
 "http://www.w3.org/TR/2001/REC-SVG-20010904/DTD/svg10.dtd">
<svg version="1.0" xmlns="http://www.w3.org/2000/svg"
 width="500.000000pt" height="500.000000pt" viewBox="0 0 500.000000 500.000000"
 preserveAspectRatio="xMidYMid meet">
<metadata>
Created by potrace 1.14, written by Peter Selinger 2001-2017
</metadata>
<g transform="translate(0.000000,500.000000) scale(0.100000,-0.100000)"
fill="#000000" stroke="none">
<path d="M3118 3813 c-3 -37 -4 -38 -45 -41 l-43 -3 0 -70 0 -69 35 0 35 0 0
-101 c0 -55 -4 -99 -8 -97 -4 2 -145 83 -312 182 -230 136 -307 176 -319 169
-9 -5 -305 -180 -658 -388 l-643 -378 0 -133 0 -132 87 47 c49 27 342 198 653
381 311 183 570 333 575 333 6 0 263 -148 570 -330 308 -181 587 -344 620
-363 33 -18 75 -41 93 -52 l32 -20 0 135 0 135 -175 103 -175 104 0 202 0 203
30 0 30 0 0 69 0 70 -42 3 c-42 3 -43 4 -46 41 l-3 37 -144 0 -144 0 -3 -37z"/>
<path d="M1660 1980 l0 -650 360 2 360 3 0 645 0 645 -360 3 -360 2 0 -650z
m670 -46 c11 -13 10 -19 -7 -36 -32 -31 -75 -4 -59 37 7 20 50 19 66 -1z"/>
<path d="M2670 2275 c0 -309 -2 -355 -15 -355 -9 0 -15 -9 -15 -25 l0 -25 385
0 385 0 0 25 c0 16 -6 25 -15 25 -13 0 -15 46 -15 355 l0 355 -355 0 -355 0 0
-355z m330 165 l0 -150 -145 0 -145 0 0 150 0 150 145 0 145 0 0 -150z m340 0
l0 -150 -145 0 -145 0 0 150 0 150 145 0 145 0 0 -150z m-340 -345 l0 -145
-145 0 -145 0 0 145 0 145 145 0 145 0 0 -145z m340 0 l0 -145 -145 0 -145 0
0 145 0 145 145 0 145 0 0 -145z"/>
</g>
</svg>
