<?xml version="1.0" standalone="no"?>
<!DOCTYPE svg PUBLIC "-//W3C//DTD SVG 20010904//EN"
 "http://www.w3.org/TR/2001/REC-SVG-20010904/DTD/svg10.dtd">
<svg version="1.0" xmlns="http://www.w3.org/2000/svg"
 width="576.000000pt" height="576.000000pt" viewBox="0 0 576.000000 576.000000"
 preserveAspectRatio="xMidYMid meet">
<metadata>
Created by potrace 1.14, written by Peter Selinger 2001-2017
</metadata>
<g transform="translate(0.000000,576.000000) scale(0.100000,-0.100000)"
fill="#000000" stroke="none">
<path d="M2764 5421 c-28 -9 -58 -24 -66 -32 -8 -7 -39 -34 -68 -59 -29 -25
-58 -50 -64 -55 -6 -6 -47 -41 -91 -79 -44 -38 -84 -74 -90 -80 -5 -6 -32 -29
-58 -50 -27 -21 -56 -47 -65 -56 -10 -9 -51 -46 -92 -81 -41 -35 -88 -76 -105
-91 -16 -14 -39 -35 -51 -45 -104 -90 -151 -131 -170 -150 -13 -13 -25 -23
-28 -23 -3 0 -16 -10 -29 -22 -53 -50 -116 -106 -177 -157 -36 -30 -69 -59
-75 -65 -5 -6 -55 -49 -110 -96 -55 -47 -107 -92 -115 -100 -9 -8 -40 -35 -69
-60 -29 -25 -67 -58 -85 -75 -18 -16 -46 -41 -62 -54 -58 -49 -179 -155 -184
-160 -3 -3 -34 -31 -70 -61 -35 -30 -72 -62 -81 -70 -18 -18 -123 -109 -159
-140 -93 -79 -439 -381 -466 -407 -7 -7 -16 -13 -21 -13 -16 0 -92 -125 -103
-170 -13 -47 -7 -167 9 -197 5 -10 14 -30 21 -45 28 -60 127 -137 200 -156 8
-2 101 -5 205 -7 105 -2 192 -3 195 -4 3 -1 4 -18 3 -38 -3 -49 -4 -92 0 -176
1 -37 -1 -67 -5 -67 -4 0 -5 -7 -1 -15 8 -23 9 -145 1 -145 -4 0 -5 -7 -1 -15
7 -20 10 -145 2 -145 -3 0 -2 -25 1 -55 3 -30 4 -55 1 -55 -5 0 -5 -106 0
-337 0 -23 -2 -46 -5 -51 -2 -4 -1 -14 3 -21 5 -7 5 -27 2 -45 -4 -17 -4 -45
-1 -63 4 -17 4 -37 0 -43 -4 -7 -4 -27 0 -45 4 -18 4 -38 0 -45 -4 -6 -4 -29
0 -51 4 -22 3 -42 -1 -45 -5 -3 -7 -9 -4 -14 6 -10 7 -60 3 -153 -2 -31 -1
-57 2 -57 4 0 4 -97 -1 -110 -1 -3 -1 -7 -1 -10 12 -179 37 -241 127 -325 57
-52 64 -58 105 -77 78 -36 110 -38 591 -36 l474 3 57 26 c63 27 164 108 179
143 5 11 13 28 18 36 36 63 43 88 46 156 2 42 5 78 7 80 2 2 1 28 -2 59 -3 30
-4 55 -1 55 7 0 4 175 -3 203 -2 9 -1 17 3 17 4 0 5 20 1 45 -4 25 -4 45 0 45
4 0 4 20 0 45 -4 25 -4 45 0 45 4 0 4 20 0 45 -4 25 -4 45 0 45 4 0 4 20 0 45
-4 25 -3 45 2 45 5 0 7 4 4 9 -8 13 -9 139 -1 186 4 21 16 58 26 80 23 50 87
125 106 125 7 0 13 4 13 9 0 16 94 44 164 48 39 2 76 5 83 8 7 2 14 1 17 -4 3
-4 30 -4 60 -1 31 3 61 3 67 0 6 -4 28 -4 50 0 22 4 41 4 44 0 2 -4 25 -4 50
0 25 4 48 3 51 -2 3 -4 9 -6 13 -4 6 4 82 7 121 5 8 0 33 0 55 1 206 11 359
-138 355 -345 -1 -27 -1 -57 -1 -65 2 -46 -1 -115 -5 -121 -2 -4 0 -10 6 -14
6 -4 8 -11 5 -16 -7 -11 -9 -198 -2 -205 2 -3 1 -20 -3 -38 -4 -19 -4 -39 0
-46 4 -6 4 -29 0 -51 -4 -22 -4 -41 0 -44 4 -2 4 -25 0 -50 -4 -25 -4 -45 -1
-45 5 0 5 -96 0 -110 -1 -3 -1 -7 -1 -10 12 -179 37 -241 127 -325 57 -52 64
-58 105 -77 78 -36 110 -38 591 -36 l474 3 57 26 c63 27 164 108 179 143 5 11
13 28 18 36 32 57 41 86 47 156 3 43 6 86 5 94 0 8 0 33 0 55 1 31 0 855 -1
960 0 11 1 57 3 103 1 45 -1 82 -4 82 -4 0 -4 15 0 33 5 18 5 41 1 52 -4 11
-6 23 -3 27 4 7 4 37 1 200 0 25 3 51 7 57 3 6 3 11 -2 11 -13 0 -8 179 6 193
8 8 66 12 184 12 94 1 188 5 207 9 64 15 154 82 186 139 42 73 47 94 48 182 1
87 0 92 -35 145 -31 48 -63 80 -179 180 -14 12 -39 34 -55 48 -17 15 -66 59
-110 97 -44 39 -85 75 -91 80 -6 6 -39 35 -73 65 -35 30 -75 66 -91 80 -15 14
-40 36 -56 49 -34 29 -177 154 -184 161 -3 3 -36 32 -75 65 -38 33 -84 74
-102 90 -31 29 -95 86 -139 122 -11 10 -52 46 -90 79 -38 34 -109 97 -159 140
-49 44 -95 84 -101 89 -6 6 -37 33 -69 60 -31 28 -70 61 -85 75 -15 14 -51 45
-80 70 -28 25 -64 56 -78 70 -15 14 -81 72 -147 130 -66 57 -125 109 -131 115
-6 5 -40 35 -75 65 -35 30 -77 68 -94 84 -16 15 -47 42 -68 60 -22 17 -56 47
-77 66 -21 19 -51 46 -66 59 -16 14 -61 53 -101 87 -39 35 -93 73 -120 85 -65
30 -188 35 -259 10z"/>
</g>
</svg>
